<svg id="Group_1353" data-name="Group 1353" xmlns="http://www.w3.org/2000/svg" width="30.985" height="30.985" viewBox="0 0 30.985 30.985">
  <path id="Path_489" data-name="Path 489" d="M11.355,0H2.645A2.648,2.648,0,0,0,0,2.645v8.71A2.648,2.648,0,0,0,2.645,14h8.71A2.648,2.648,0,0,0,14,11.355V2.645A2.648,2.648,0,0,0,11.355,0ZM28.34,0H19.63a2.648,2.648,0,0,0-2.645,2.645v8.71A2.648,2.648,0,0,0,19.63,14h8.71a2.648,2.648,0,0,0,2.645-2.645V2.645A2.648,2.648,0,0,0,28.34,0ZM11.355,16.985H2.645A2.648,2.648,0,0,0,0,19.63v8.71a2.648,2.648,0,0,0,2.645,2.645h8.71A2.648,2.648,0,0,0,14,28.34V19.63A2.648,2.648,0,0,0,11.355,16.985Zm16.985,0H19.63a2.648,2.648,0,0,0-2.645,2.645v8.71a2.648,2.648,0,0,0,2.645,2.645h8.71a2.648,2.648,0,0,0,2.645-2.645V19.63A2.648,2.648,0,0,0,28.34,16.985Z" fill="#cfcfcf"/>
</svg>
