<svg xmlns="http://www.w3.org/2000/svg" width="22.216" height="22.216" viewBox="0 0 22.216 22.216">
  <g id="Group_1358" data-name="Group 1358" transform="translate(0.006 0.003)">
    <g id="_02_User" data-name="02 User" transform="translate(-0.006 -0.003)">
      <path id="Path_490" data-name="Path 490" d="M1.079,22.213a1.085,1.085,0,0,1-.767-1.852L20.358.314a1.085,1.085,0,1,1,1.534,1.534L1.846,21.9A1.082,1.082,0,0,1,1.079,22.213Z" transform="translate(0.006 0.003)" fill="#cfcfcf"/>
      <path id="Path_491" data-name="Path 491" d="M21.128,22.213a1.082,1.082,0,0,1-.767-.318L.314,1.849A1.085,1.085,0,1,1,1.849.314L21.9,20.361a1.085,1.085,0,0,1-.767,1.852Z" transform="translate(0.003 0.003)" fill="#cfcfcf"/>
    </g>
  </g>
</svg>
